<?xml version="1.0" encoding="utf-8"?>
<!-- Original vehicle and location marker icon are from Font Awesome (attribution below). Thanks! -->
<!-- https://fontawesome.com/icons/van-shuttle?f=classic&s=solid -->
<!-- https://fontawesome.com/icons/location-dot?f=classic&s=light -->
<!--!Font Awesome Free 6.7.2 by @fontawesome - https://fontawesome.com License - https://fontawesome.com/license/free Copyright 2025 Fonticons, Inc.-->
<svg xmlns="http://www.w3.org/2000/svg" viewBox="0 0 500 500">
  <g transform="matrix(1.334057, 0, 0, 1.334057, -75.664665, -71.772743)">
    <title>icon</title>
    <path d="M 281.37 278.582 L 245.242 321.453 L 209.025 321.453 L 209.025 278.582 L 281.37 278.582 Z M 186.444 278.582 L 186.444 321.453 L 143.572 321.453 L 143.572 278.582 L 186.444 278.582 Z M 301.913 192.839 L 294.767 192.839 C 294.767 169.17 275.565 149.967 251.896 149.967 C 228.227 149.967 209.025 169.17 209.025 192.839 L 157.863 192.839 C 157.863 169.17 138.66 149.967 114.991 149.967 C 91.323 149.967 72.12 169.17 72.12 192.839 L 106.064 256.235 L 129.282 350.034 L 200.734 350.034 L 245.242 350.034 C 253.682 350.034 261.676 346.327 267.124 339.852 L 316.65 281.038 C 320.982 275.902 323.348 269.382 323.348 262.639 L 323.348 214.275 C 323.348 202.44 313.747 192.839 301.913 192.839 Z M 273.332 192.839 C 273.332 209.34 255.469 219.654 241.178 211.403 C 234.546 207.574 230.46 200.497 230.46 192.839 C 230.46 176.338 248.323 166.025 262.614 174.275 C 269.246 178.104 273.332 185.18 273.332 192.839 Z M 114.991 171.403 C 131.492 171.403 141.806 189.266 133.555 203.557 C 129.726 210.189 122.65 214.275 114.991 214.275 C 98.49 214.275 88.177 196.411 96.428 182.121 C 100.257 175.489 107.333 171.403 114.991 171.403 Z" style="fill: rgb(0, 0, 0); stroke: rgb(255, 255, 255); paint-order: stroke; stroke-width: 24px; transform-box: fill-box; transform-origin: 50% 50%;" transform="matrix(-1, 0, 0, -1, -0.000024, 0.000012)">
      <title>bus</title>
    </path>
    <path d="M 340.135 351.287 C 363.294 322.305 416.112 252.061 416.112 212.606 C 416.112 164.753 377.288 125.93 329.436 125.93 C 281.584 125.93 242.76 164.753 242.76 212.606 C 242.76 252.061 295.579 322.305 318.737 351.287 C 324.29 358.194 334.583 358.194 340.135 351.287 Z M 329.436 183.714 C 351.677 183.714 365.578 207.79 354.458 227.052 C 349.296 235.991 339.758 241.497 329.436 241.497 C 307.195 241.497 293.295 217.421 304.415 198.16 C 309.576 189.22 319.114 183.714 329.436 183.714 Z" style="fill: rgb(0, 0, 0); stroke: rgb(255, 255, 255); stroke-width: 18px;">
      <title>marker</title>
    </path>
  </g>
</svg>